<?xml version="1.0" standalone="no"?>
<!DOCTYPE svg PUBLIC "-//W3C//DTD SVG 20010904//EN"
 "http://www.w3.org/TR/2001/REC-SVG-20010904/DTD/svg10.dtd">
<svg version="1.0" xmlns="http://www.w3.org/2000/svg"
 width="200.000000pt" height="82.000000pt" viewBox="0 0 200.000000 82.000000"
 preserveAspectRatio="xMidYMid meet">

<g transform="translate(0.000000,82.000000) scale(0.100000,-0.100000)"
fill="#000000" stroke="none">
<path d="M176 704 c-9 -8 -18 -25 -21 -37 -12 -54 -55 -327 -55 -351 0 -38 31
-52 162 -72 l117 -18 43 -63 c24 -34 46 -63 50 -63 4 0 10 17 13 38 11 66 10
65 70 57 71 -8 91 -1 104 37 14 38 14 48 1 48 -5 0 -10 -11 -10 -24 0 -32 -27
-59 -54 -52 -12 2 -42 8 -67 11 l-46 7 -7 -41 c-3 -23 -10 -41 -14 -41 -4 0
-22 22 -40 49 -37 54 -32 52 -185 77 -76 12 -110 22 -116 33 -5 10 3 87 21
196 23 138 34 184 48 196 17 15 27 15 122 -1 94 -16 119 -18 107 -6 -6 6 -178
36 -206 36 -12 0 -29 -7 -37 -16z"/>
<path d="M463 673 c-7 -2 -15 -21 -18 -41 -11 -62 -9 -61 -60 -50 -58 12 -71
2 -80 -62 -10 -74 -13 -88 -19 -99 -14 -22 28 -39 136 -56 62 -10 124 -24 138
-30 14 -7 46 -15 70 -17 l45 -3 19 108 c10 60 16 110 14 112 -3 3 -29 9 -58
15 -43 8 -57 7 -68 -3 -21 -22 -72 31 -72 75 0 19 -5 39 -12 46 -13 13 -16 13
-35 5z m27 -49 c0 -29 8 -44 41 -76 30 -30 39 -45 35 -61 -2 -12 -8 -46 -12
-75 -6 -51 -8 -53 -33 -48 -14 3 -43 8 -64 12 l-38 6 4 47 c4 47 6 49 44 24
12 -8 28 -13 35 -10 8 3 2 9 -15 16 -39 15 -50 52 -37 120 15 73 17 81 30 81
5 0 10 -16 10 -36z m-82 -60 c12 -4 22 -13 22 -21 0 -12 -8 -14 -37 -9 -21 3
-44 6 -50 6 -7 0 -13 7 -13 15 0 16 36 20 78 9z m280 -39 c5 -4 -14 -143 -25
-178 -4 -16 -11 -17 -46 -12 -23 4 -46 10 -50 15 -4 4 0 49 9 100 l17 92 45
-6 c25 -3 48 -8 50 -11z m-272 -18 c14 -14 -10 -25 -44 -20 -41 6 -57 16 -48
31 5 9 81 0 92 -11z m-12 -47 c13 -12 -2 -29 -22 -25 -63 13 -72 17 -72 31 0
13 8 15 43 9 23 -4 46 -11 51 -15z m-41 -36 c38 -7 53 -34 18 -34 -40 0 -81
13 -81 26 0 16 8 17 63 8z"/>
</g>
</svg>
